Coordinates
version=1
nRows=5
nColumns=63
inDegrees=yes

Units are S.I. units (second, meters, Newtons, ...)
If the header above contains a line with 'inDegrees', this indicates whether rotational values are in degrees (yes) or radians (no).

endheader
time	pelvis_tilt	pelvis_list	pelvis_rotation	pelvis_tx	pelvis_ty	pelvis_tz	hip_flexion_r	hip_adduction_r	hip_rotation_r	knee_angle_r	knee_angle_r_beta	ankle_angle_r	subtalar_angle_r	mtp_angle_r	hip_flexion_l	hip_adduction_l	hip_rotation_l	knee_angle_l	knee_angle_l_beta	ankle_angle_l	subtalar_angle_l	mtp_angle_l	L5_S1_Flex_Ext	L5_S1_Lat_Bending	L5_S1_axial_rotation	L4_L5_Flex_Ext	L4_L5_Lat_Bending	L4_L5_axial_rotation	L3_L4_Flex_Ext	L3_L4_Lat_Bending	L3_L4_axial_rotation	L2_L3_Flex_Ext	L2_L3_Lat_Bending	L2_L3_axial_rotation	L1_L2_Flex_Ext	L1_L2_Lat_Bending	L1_L2_axial_rotation	L1_T12_Flex_Ext	L1_T12_Lat_Bending	L1_T12_axial_rotation	Abs_r3	Abs_r2	Abs_r1	Abs_t1	Abs_t2	neck_flexion	neck_bending	neck_rotation	arm_flex_r	arm_add_r	arm_rot_r	elbow_flex_r	pro_sup_r	wrist_flex_r	wrist_dev_r	arm_flex_l	arm_add_l	arm_rot_l	elbow_flex_l	pro_sup_l	wrist_flex_l	wrist_dev_l
      1.40350877	     -3.99678056	     -7.91679752	    108.54061140	      0.05403232	      0.99885895	      0.44797297	     -0.69500239	     -2.75255858	    -21.80856498	     10.16190863	      0.17735876	     26.40934129	     12.58270395	      0.00000000	     -0.13065976	      2.57665981	      4.89527382	      4.35337390	      0.07598071	     23.26223725	      7.92290376	      0.00000000	     -0.03640527	     -0.23889061	     -1.77211674	     -0.06760823	     -0.31772451	     -1.88287404	     -0.05981022	     -0.58083862	     -1.88287404	     -0.04160759	     -0.58083862	     -1.55060215	     -0.03380594	     -0.48714572	     -1.43984485	     -0.02080197	     -0.37004155	     -1.32908756	     -0.26003922	     -2.70237831	     -9.85598169	      0.00000000	      0.00000000	     -6.72488008	      3.78944032	      5.59572492	     25.24063087	    -25.42669915	      7.48207061	     85.37046812	     72.06931538	     -6.06270964	     13.78855102	      6.06347979	    -13.28162633	     10.74081411	     83.12424616	     88.52391951	     -6.81380820	     17.26512057
      1.42105263	     -4.07970628	     -7.85145803	    108.24113397	      0.05420450	      0.99945015	      0.44656598	     -0.89019545	     -2.80672590	    -21.82163370	     10.01302437	      0.17476024	     26.45780093	     13.10899639	      0.00000000	     -0.41557294	      2.60300439	      4.07069154	      4.16216569	      0.07264350	     23.13610667	      8.83943956	      0.00000000	     -0.01720102	     -0.26078644	     -1.66422150	     -0.03194402	     -0.34684597	     -1.76823534	     -0.02825956	     -0.63407616	     -1.76823534	     -0.01965905	     -0.63407616	     -1.45619381	     -0.01597287	     -0.53179572	     -1.35217997	     -0.00982866	     -0.40395820	     -1.24816612	     -0.12286517	     -2.95006842	     -9.25590071	      0.00000000	      0.00000000	     -7.21341321	      3.52414752	      5.49213688	     25.76220970	    -25.26655201	      5.64570601	     88.63305386	     75.32642727	     -8.71980282	     12.14018738	      7.03899702	    -13.55499173	     11.51461444	     83.52617198	     88.54834107	     -8.36317722	     18.97705119
      1.43859649	     -4.09015882	     -7.72240525	    108.01486149	      0.05422346	      0.99996478	      0.44504604	     -1.15405133	     -2.75426239	    -21.78398890	      9.86540779	      0.17218385	     26.37951691	     13.35977162	      0.00000000	     -0.75072993	      2.53588070	      3.23019462	      3.93603424	      0.06869676	     23.16215809	     10.02353336	      0.00000000	      0.00420355	     -0.26867115	     -1.58921464	      0.00780640	     -0.35733263	     -1.68854055	      0.00690600	     -0.65324703	     -1.68854055	      0.00480423	     -0.65324703	     -1.39056281	      0.00390341	     -0.54787421	     -1.29123689	      0.00240191	     -0.41617161	     -1.19191098	      0.03002551	     -3.03926179	     -8.83873505	      0.00000000	      0.00000000	     -7.78892859	      3.13199765	      5.75720327	     26.45873314	    -24.65941370	      3.77872390	     91.03846504	     80.30266538	     -9.57170229	     12.08166374	      7.80680405	    -13.79395906	     12.12350485	     83.70559866	     88.52021217	     -9.45755456	     20.17956800
      1.45614035	     -4.01659934	     -7.47349721	    107.97616324	      0.05374990	      1.00042053	      0.44377989	     -1.54654574	     -2.57734339	    -21.76775071	      9.69909675	      0.16928117	     26.15562025	     13.34256413	      0.00000000	     -1.17685322	      2.37222201	      2.84521548	      3.66485768	      0.06396383	     23.33774395	     10.97105400	      0.00000000	      0.01383592	     -0.26154770	     -1.55331106	      0.02569469	     -0.34785844	     -1.65039300	      0.02273103	     -0.63592708	     -1.65039300	      0.01581307	     -0.63592708	     -1.35914717	      0.01284804	     -0.53334807	     -1.26206523	      0.00790584	     -0.40513739	     -1.16498329	      0.09882859	     -2.95867988	     -8.63905010	      0.00000000	      0.00000000	     -8.21155853	      2.59732292	      5.99155053	     27.48005934	    -24.23066766	      2.56431327	     92.59054168	     84.27416318	     -9.45143327	     12.15827619	      8.37442463	    -13.86804564	     12.53423485	     83.79789763	     88.41042182	    -10.13087687	     20.91132437
      1.47368421	     -3.98782933	     -7.23477541	    108.15659392	      0.05296086	      1.00082102	      0.44318003	     -1.81938925	     -2.50089611	    -21.93252439	      9.82407629	      0.17146248	     26.02042123	     13.11853673	      0.00000000	     -1.47657493	      2.27301057	      2.95995056	      3.55597876	      0.06206354	     23.47185950	     11.50349369	      0.00000000	      0.01834047	     -0.25926700	     -1.54139090	      0.03406009	     -0.34482511	     -1.63772783	      0.03013156	     -0.63038179	     -1.63772783	      0.02096132	     -0.63038179	     -1.34871704	      0.01703096	     -0.52869727	     -1.25238011	      0.01047974	     -0.40160458	     -1.15604318	      0.13100415	     -2.93288016	     -8.57275377	      0.00000000	      0.00000000	     -8.44297059	      1.91516228	      6.22749281	     28.54193953	    -23.73120143	      1.64544652	     93.49194843	     85.93860025	     -9.35257951	     11.88635015	      8.73378747	    -13.58123240	     12.57560866	     83.78021844	     88.20491259	    -10.36904977	     21.05167864
